# xmcd
#
# Track frame offsets:
#	150
#	22209
#	31254
#	64534
#	79865
#	89870
#	113724
#	137572
#	147963
#	171477
#	187944
#	198538
#	231280
#
# Disc length: 3432 seconds
#
# Revision: 2
# Processed by: cddbd v1.5.2PL0 Copyright (c) Steve Scherf et al.
# Submitted via: audiograbber 1.83.01
#
DISCID=b90d660d
DTITLE=Various Artist - Xmix Dance 31 - 1996
DYEAR=1996
DGENRE=Remix
TTITLE0=Various Artist - House Of X - Take Your Chance
TTITLE1=Various Artist - House Of X - Bridge
TTITLE2=Various Artist - House Of X - Misirlou
TTITLE3=Dreamworld - Movin' Up Pt.1
TTITLE4=Dreamworld - Movin' Up Pt.2
TTITLE5=4 Hero - Mr. Kirk
TTITLE6=Todd Terry - Weekend Pt.1
TTITLE7=Todd Terry - Weekend Pt.2
TTITLE8=Edwyn Collins - A Girl Like You
TTITLE9=The Outhere Brothers - Don't Stop Pt.1
TTITLE10=The Outhere Brothers - Don't Stop Pt.2
TTITLE11=Indeep - Last Night A DJ Saved My Life
TTITLE12=Chazz - A Mover La Colita
EXTD=
EXTT0=
EXTT1=
EXTT2=
EXTT3=
EXTT4=
EXTT5=
EXTT6=
EXTT7=
EXTT8=
EXTT9=
EXTT10=
EXTT11=
EXTT12=
PLAYORDER=
